<svg width="182" height="27" viewBox="0 0 182 27" fill="none" xmlns="http://www.w3.org/2000/svg">
<path d="M13.1734 24.9517L12.1934 19.6317H6.80344L5.85844 24.9517H0.398438L6.27844 0.696655H12.8584L18.7384 24.9517H13.1734ZM7.53844 15.6767H11.4934L9.49844 4.72166L7.53844 15.6767Z" fill="#FF0404"/>
<path d="M26.9235 0.696655V20.6117H34.5535L33.9935 24.9517H21.4285V0.696655H26.9235Z" fill="#FF0404"/>
<path d="M43.2259 0.696655V24.9517H37.7309V0.696655H43.2259ZM54.9159 0.696655L48.8959 11.6167L55.4409 24.9517H49.4559L43.4009 12.0017L49.4909 0.696655H54.9159Z" fill="#FF0404"/>
<path d="M63.5272 0.696655V24.9517H58.0322V0.696655H63.5272ZM75.2172 0.696655L69.1972 11.6167L75.7422 24.9517H69.7572L63.7022 12.0017L69.7922 0.696655H75.2172Z" fill="#FF0404"/>
<path d="M80.5736 19.4217C81.4369 19.4217 82.1486 19.725 82.7086 20.3317C83.2686 20.9383 83.5486 21.6617 83.5486 22.5017C83.5486 23.3417 83.2686 24.065 82.7086 24.6717C82.1486 25.255 81.4369 25.5467 80.5736 25.5467C79.6869 25.5467 78.9636 25.255 78.4036 24.6717C77.8669 24.065 77.5986 23.3417 77.5986 22.5017C77.5986 21.6617 77.8669 20.9383 78.4036 20.3317C78.9636 19.725 79.6869 19.4217 80.5736 19.4217Z" fill="#FF0404"/>
<path d="M98.379 24.9517L94.424 15.6067H94.249H92.919V24.9517H87.424V0.696655H93.899C99.919 0.696655 102.929 3.14666 102.929 8.04666C102.929 9.46999 102.626 10.7533 102.019 11.8967C101.436 13.04 100.514 13.9267 99.254 14.5567L104.224 24.9517H98.379ZM94.039 11.7917C95.2057 11.7917 96.0457 11.5 96.559 10.9167C97.0724 10.31 97.329 9.35332 97.329 8.04666C97.329 6.85666 97.049 5.98166 96.489 5.42166C95.9524 4.86166 95.0774 4.58166 93.864 4.58166H92.919V11.7917H94.039Z" fill="#FF0404"/>
<path d="M122.487 17.9517C122.487 19.3983 122.184 20.6933 121.577 21.8367C120.971 22.9567 120.061 23.855 118.847 24.5317C117.634 25.185 116.141 25.5117 114.367 25.5117C111.707 25.5117 109.689 24.8233 108.312 23.4467C106.936 22.07 106.247 20.2383 106.247 17.9517V0.696655H111.742V17.7067C111.742 18.9667 111.941 19.9 112.337 20.5067C112.757 21.1133 113.434 21.4167 114.367 21.4167C115.301 21.4167 115.966 21.1133 116.362 20.5067C116.782 19.9 116.992 18.9667 116.992 17.7067V0.696655H122.487V17.9517Z" fill="#FF0404"/>
<path d="M136.814 14.9517V9.73166L133.214 14.9517H132.464V7.95166H133.394V13.1817L136.994 7.95166H137.744V14.9517H136.814ZM142.611 9.95166H143.481V14.9517H142.611V12.8617H140.021V14.9517H139.151V9.95166H140.021V12.0317H142.611V9.95166ZM148.526 9.95166V10.7917H146.826V14.9517H145.956V10.7917H144.246V9.95166H148.526ZM149.703 12.8517C149.789 13.2983 149.993 13.645 150.313 13.8917C150.639 14.1383 151.039 14.2617 151.513 14.2617C152.173 14.2617 152.653 14.0183 152.953 13.5317L153.693 13.9517C153.206 14.705 152.473 15.0817 151.493 15.0817C150.699 15.0817 150.053 14.835 149.553 14.3417C149.059 13.8417 148.813 13.2117 148.813 12.4517C148.813 11.6983 149.056 11.0717 149.543 10.5717C150.029 10.0717 150.659 9.82166 151.433 9.82166C152.166 9.82166 152.763 10.0817 153.223 10.6017C153.689 11.115 153.923 11.735 153.923 12.4617C153.923 12.5883 153.913 12.7183 153.893 12.8517H149.703ZM151.433 10.6417C150.966 10.6417 150.579 10.775 150.273 11.0417C149.966 11.3017 149.776 11.6517 149.703 12.0917H153.043C152.969 11.6183 152.783 11.2583 152.483 11.0117C152.183 10.765 151.833 10.6417 151.433 10.6417ZM157.683 9.82166C158.383 9.82166 158.979 10.0783 159.473 10.5917C159.966 11.0983 160.213 11.7183 160.213 12.4517C160.213 13.185 159.966 13.8083 159.473 14.3217C158.979 14.8283 158.383 15.0817 157.683 15.0817C156.856 15.0817 156.226 14.7517 155.793 14.0917V16.9517H154.923V9.95166H155.793V10.8117C156.226 10.1517 156.856 9.82166 157.683 9.82166ZM157.573 14.2417C158.073 14.2417 158.493 14.0717 158.833 13.7317C159.173 13.385 159.343 12.9583 159.343 12.4517C159.343 11.945 159.173 11.5217 158.833 11.1817C158.493 10.835 158.073 10.6617 157.573 10.6617C157.066 10.6617 156.643 10.835 156.303 11.1817C155.963 11.5217 155.793 11.945 155.793 12.4517C155.793 12.9583 155.963 13.385 156.303 13.7317C156.643 14.0717 157.066 14.2417 157.573 14.2417ZM164.711 9.95166H165.581V14.9517H164.711V12.8617H162.121V14.9517H161.251V9.95166H162.121V12.0317H164.711V9.95166ZM167.515 12.8517C167.602 13.2983 167.805 13.645 168.125 13.8917C168.452 14.1383 168.852 14.2617 169.325 14.2617C169.985 14.2617 170.465 14.0183 170.765 13.5317L171.505 13.9517C171.018 14.705 170.285 15.0817 169.305 15.0817C168.512 15.0817 167.865 14.835 167.365 14.3417C166.872 13.8417 166.625 13.2117 166.625 12.4517C166.625 11.6983 166.868 11.0717 167.355 10.5717C167.842 10.0717 168.472 9.82166 169.245 9.82166C169.978 9.82166 170.575 10.0817 171.035 10.6017C171.502 11.115 171.735 11.735 171.735 12.4617C171.735 12.5883 171.725 12.7183 171.705 12.8517H167.515ZM169.245 10.6417C168.778 10.6417 168.392 10.775 168.085 11.0417C167.778 11.3017 167.588 11.6517 167.515 12.0917H170.855C170.782 11.6183 170.595 11.2583 170.295 11.0117C169.995 10.765 169.645 10.6417 169.245 10.6417ZM176.26 9.95166V10.7917H174.56V14.9517H173.69V10.7917H171.98V9.95166H176.26ZM176.8 12.3017V11.4617H180.45V12.3017H176.8ZM136.514 19.9517H137.384V24.9517H136.514V24.0917C136.081 24.7517 135.451 25.0817 134.624 25.0817C133.924 25.0817 133.327 24.8283 132.834 24.3217C132.341 23.8083 132.094 23.185 132.094 22.4517C132.094 21.7183 132.341 21.0983 132.834 20.5917C133.327 20.0783 133.924 19.8217 134.624 19.8217C135.451 19.8217 136.081 20.1517 136.514 20.8117V19.9517ZM134.734 24.2417C135.241 24.2417 135.664 24.0717 136.004 23.7317C136.344 23.385 136.514 22.9583 136.514 22.4517C136.514 21.945 136.344 21.5217 136.004 21.1817C135.664 20.835 135.241 20.6617 134.734 20.6617C134.234 20.6617 133.814 20.835 133.474 21.1817C133.134 21.5217 132.964 21.945 132.964 22.4517C132.964 22.9583 133.134 23.385 133.474 23.7317C133.814 24.0717 134.234 24.2417 134.734 24.2417ZM141.982 19.9517V20.7917H139.572V24.9517H138.702V19.9517H141.982ZM143.16 22.8517C143.246 23.2983 143.45 23.645 143.77 23.8917C144.096 24.1383 144.496 24.2617 144.97 24.2617C145.63 24.2617 146.11 24.0183 146.41 23.5317L147.15 23.9517C146.663 24.705 145.93 25.0817 144.95 25.0817C144.156 25.0817 143.51 24.835 143.01 24.3417C142.516 23.8417 142.27 23.2117 142.27 22.4517C142.27 21.6983 142.513 21.0717 143 20.5717C143.486 20.0717 144.116 19.8217 144.89 19.8217C145.623 19.8217 146.22 20.0817 146.68 20.6017C147.146 21.115 147.38 21.735 147.38 22.4617C147.38 22.5883 147.37 22.7183 147.35 22.8517H143.16ZM144.89 20.6417C144.423 20.6417 144.036 20.775 143.73 21.0417C143.423 21.3017 143.233 21.6517 143.16 22.0917H146.5C146.426 21.6183 146.24 21.2583 145.94 21.0117C145.64 20.765 145.29 20.6417 144.89 20.6417ZM151.84 19.9517H152.71V24.9517H151.84V22.8617H149.25V24.9517H148.38V19.9517H149.25V22.0317H151.84V19.9517ZM157.754 19.9517V20.7917H156.054V24.9517H155.184V20.7917H153.474V19.9517H157.754ZM160.671 25.0817C159.918 25.0817 159.291 24.8317 158.791 24.3317C158.291 23.825 158.041 23.1983 158.041 22.4517C158.041 21.705 158.291 21.0817 158.791 20.5817C159.291 20.075 159.918 19.8217 160.671 19.8217C161.164 19.8217 161.608 19.9417 162.001 20.1817C162.394 20.415 162.688 20.7317 162.881 21.1317L162.151 21.5517C162.024 21.285 161.828 21.0717 161.561 20.9117C161.301 20.7517 161.004 20.6717 160.671 20.6717C160.171 20.6717 159.751 20.8417 159.411 21.1817C159.078 21.5217 158.911 21.945 158.911 22.4517C158.911 22.9517 159.078 23.3717 159.411 23.7117C159.751 24.0517 160.171 24.2217 160.671 24.2217C161.004 24.2217 161.304 24.145 161.571 23.9917C161.838 23.8317 162.041 23.6183 162.181 23.3517L162.921 23.7817C162.708 24.175 162.401 24.4917 162.001 24.7317C161.601 24.965 161.158 25.0817 160.671 25.0817ZM167.422 19.9517V20.7917H165.722V24.9517H164.852V20.7917H163.142V19.9517H167.422ZM171.514 22.3817C172.028 22.595 172.284 22.9817 172.284 23.5417C172.284 23.955 172.144 24.295 171.864 24.5617C171.591 24.8217 171.198 24.9517 170.684 24.9517H168.184V19.9517H170.484C170.984 19.9517 171.371 20.0783 171.644 20.3317C171.918 20.5783 172.054 20.905 172.054 21.3117C172.054 21.7917 171.874 22.1483 171.514 22.3817ZM170.444 20.7317H169.034V22.0417H170.444C170.951 22.0417 171.204 21.8183 171.204 21.3717C171.204 20.945 170.951 20.7317 170.444 20.7317ZM170.634 24.1617C170.888 24.1617 171.081 24.1017 171.214 23.9817C171.354 23.8617 171.424 23.6917 171.424 23.4717C171.424 23.265 171.354 23.105 171.214 22.9917C171.081 22.8717 170.888 22.8117 170.634 22.8117H169.034V24.1617H170.634ZM177.443 24.3217C176.93 24.8283 176.307 25.0817 175.573 25.0817C174.84 25.0817 174.217 24.8283 173.703 24.3217C173.197 23.815 172.943 23.1917 172.943 22.4517C172.943 21.7117 173.197 21.0883 173.703 20.5817C174.217 20.075 174.84 19.8217 175.573 19.8217C176.307 19.8217 176.93 20.075 177.443 20.5817C177.957 21.0883 178.213 21.7117 178.213 22.4517C178.213 23.1917 177.957 23.815 177.443 24.3217ZM175.573 24.2317C176.073 24.2317 176.493 24.0617 176.833 23.7217C177.173 23.3817 177.343 22.9583 177.343 22.4517C177.343 21.945 177.173 21.5217 176.833 21.1817C176.493 20.8417 176.073 20.6717 175.573 20.6717C175.08 20.6717 174.663 20.8417 174.323 21.1817C173.983 21.5217 173.813 21.945 173.813 22.4517C173.813 22.9583 173.983 23.3817 174.323 23.7217C174.663 24.0617 175.08 24.2317 175.573 24.2317Z" fill="white"/>
<mask id="mask0_59_938" style="mask-type:alpha" maskUnits="userSpaceOnUse" x="0" y="0" width="123" height="26">
<path d="M13.1734 24.9517L12.1934 19.6317H6.80344L5.85844 24.9517H0.398438L6.27844 0.696655H12.8584L18.7384 24.9517H13.1734ZM7.53844 15.6767H11.4934L9.49844 4.72166L7.53844 15.6767Z" fill="#FF0404"/>
<path d="M26.9235 0.696655V20.6117H34.5535L33.9935 24.9517H21.4285V0.696655H26.9235Z" fill="#FF0404"/>
<path d="M43.2259 0.696655V24.9517H37.7309V0.696655H43.2259ZM54.9159 0.696655L48.8959 11.6167L55.4409 24.9517H49.4559L43.4009 12.0017L49.4909 0.696655H54.9159Z" fill="#FF0404"/>
<path d="M63.5272 0.696655V24.9517H58.0322V0.696655H63.5272ZM75.2172 0.696655L69.1972 11.6167L75.7422 24.9517H69.7572L63.7022 12.0017L69.7922 0.696655H75.2172Z" fill="#FF0404"/>
<path d="M80.5736 19.4217C81.4369 19.4217 82.1486 19.725 82.7086 20.3317C83.2686 20.9383 83.5486 21.6617 83.5486 22.5017C83.5486 23.3417 83.2686 24.065 82.7086 24.6717C82.1486 25.255 81.4369 25.5467 80.5736 25.5467C79.6869 25.5467 78.9636 25.255 78.4036 24.6717C77.8669 24.065 77.5986 23.3417 77.5986 22.5017C77.5986 21.6617 77.8669 20.9383 78.4036 20.3317C78.9636 19.725 79.6869 19.4217 80.5736 19.4217Z" fill="#FF0404"/>
<path d="M98.379 24.9517L94.424 15.6067H94.249H92.919V24.9517H87.424V0.696655H93.899C99.919 0.696655 102.929 3.14666 102.929 8.04666C102.929 9.46999 102.626 10.7533 102.019 11.8967C101.436 13.04 100.514 13.9267 99.254 14.5567L104.224 24.9517H98.379ZM94.039 11.7917C95.2057 11.7917 96.0457 11.5 96.559 10.9167C97.0724 10.31 97.329 9.35332 97.329 8.04666C97.329 6.85666 97.049 5.98166 96.489 5.42166C95.9524 4.86166 95.0774 4.58166 93.864 4.58166H92.919V11.7917H94.039Z" fill="#FF0404"/>
<path d="M122.487 17.9517C122.487 19.3983 122.184 20.6933 121.577 21.8367C120.971 22.9567 120.061 23.855 118.847 24.5317C117.634 25.185 116.141 25.5117 114.367 25.5117C111.707 25.5117 109.689 24.8233 108.312 23.4467C106.936 22.07 106.247 20.2383 106.247 17.9517V0.696655H111.742V17.7067C111.742 18.9667 111.941 19.9 112.337 20.5067C112.757 21.1133 113.434 21.4167 114.367 21.4167C115.301 21.4167 115.966 21.1133 116.362 20.5067C116.782 19.9 116.992 18.9667 116.992 17.7067V0.696655H122.487V17.9517Z" fill="#FF0404"/>
</mask>
<g mask="url(#mask0_59_938)">
<rect x="-1.44141" y="21.5733" width="21.4532" height="6.39274" fill="white"/>
</g>
</svg>
